<svg width="16" height="16" viewBox="0 0 16 16" fill="none" xmlns="http://www.w3.org/2000/svg">
  <path d="M14.5 2H1.5C1.22386 2 1 2.22386 1 2.5V3.5C1 3.77614 1.22386 4 1.5 4H14.5C14.7761 4 15 3.77614 15 3.5V2.5C15 2.22386 14.7761 2 14.5 2Z" stroke="currentColor" stroke-width="1.5" stroke-linecap="round" stroke-linejoin="round"/>
  <path d="M12.5 7H3.5C3.22386 7 3 7.22386 3 7.5V8.5C3 8.77614 3.22386 9 3.5 9H12.5C12.7761 9 13 8.77614 13 8.5V7.5C13 7.22386 12.7761 7 12.5 7Z" stroke="currentColor" stroke-width="1.5" stroke-linecap="round" stroke-linejoin="round"/>
  <path d="M10.5 12H5.5C5.22386 12 5 12.2239 5 12.5V13.5C5 13.7761 5.22386 14 5.5 14H10.5C10.7761 14 11 13.7761 11 13.5V12.5C11 12.2239 10.7761 12 10.5 12Z" stroke="currentColor" stroke-width="1.5" stroke-linecap="round" stroke-linejoin="round"/>
</svg> 