<svg width="1407" height="412" xmlns="http://www.w3.org/2000/svg" xmlns:xlink="http://www.w3.org/1999/xlink" xml:space="preserve" overflow="hidden"><defs><clipPath id="clip0"><rect x="2580" y="994" width="1407" height="412"/></clipPath></defs><g clip-path="url(#clip0)" transform="translate(-2580 -994)"><path d="M3569.43 994 3639 994.954 3617.51 1001.24C3589.31 1010.89 3565 1024.64 3544.62 1042.51 3529.68 1055.59 3517.15 1070.6 3506.92 1087.42L3499.51 1101.16 3213.4 1101.16C3197.38 1101.16 3182.52 1103.62 3168.8 1108.54 3155.08 1113.46 3143.16 1120.46 3133.07 1129.48 3122.97 1138.51 3115.06 1149.09 3109.34 1161.19 3103.64 1173.31 3100.77 1186.74 3100.77 1201.52 3100.77 1216.3 3103.53 1229.75 3109.06 1241.85 3114.58 1253.97 3122.4 1264.33 3132.5 1272.95 3142.59 1281.57 3154.51 1288.25 3168.23 1292.96 3181.95 1297.69 3197.01 1300.05 3213.4 1300.05L3358.04 1300.05 3358.04 1240.32 3160.23 1240.32 3174.61 1221.71 3271.83 1221.71 3273.01 1224.56C3274.29 1225.84 3276.05 1226.63 3278 1226.63 3281.89 1226.63 3285.05 1223.47 3285.05 1219.57 3285.05 1215.67 3281.89 1212.51 3278 1212.51 3276.05 1212.51 3274.29 1213.3 3273.01 1214.58L3271.83 1217.44 3177.91 1217.44 3193.32 1197.5 3237.82 1197.5 3238.89 1200.09C3240.17 1201.37 3241.93 1202.16 3243.88 1202.16 3247.78 1202.16 3250.94 1199 3250.94 1195.1 3250.94 1191.2 3247.78 1188.04 3243.88 1188.04 3241.93 1188.04 3240.17 1188.83 3238.89 1190.11L3237.6 1193.23 3196.61 1193.23 3212.43 1172.76 3314.5 1172.76 3315.68 1175.62C3316.96 1176.9 3318.72 1177.69 3320.67 1177.69 3324.57 1177.69 3327.72 1174.53 3327.72 1170.63 3327.72 1166.73 3324.57 1163.57 3320.67 1163.57 3318.72 1163.57 3316.96 1164.36 3315.68 1165.64L3314.5 1168.49 3215.72 1168.49 3231.12 1148.57 3475.82 1148.57 3475.82 1406 3213.4 1406C3212.37 1406 3211.4 1405.89 3210.37 1405.88 3178.39 1405.56 3148.68 1400.33 3121.35 1389.98 3093.14 1379.32 3068.85 1364.65 3048.46 1345.96 3028.07 1327.28 3012.06 1305.11 3000.44 1279.45 2988.8 1253.79 2983 1225.97 2983 1196 2983 1166.05 2988.8 1138.65 3000.44 1113.8 3003.55 1107.15 3007.02 1100.81 3010.75 1094.67 3020.99 1077.84 3033.52 1062.83 3048.46 1049.75 3068.83 1031.89 3093.14 1018.13 3121.35 1008.49 3149.56 998.845 3180.23 994.016 3213.4 994.016L3569.44 994.016C3569.44 994.011 3569.43 994.005 3569.43 994Z" fill="#D41F1E" fill-rule="evenodd"/><path d="M3986.33 1072.25 3986.33 1074.25 3986.69 1074.25 3986.69 1072.25ZM3986.33 1045.97 3986.33 1047.97 3986.69 1047.97 3986.69 1045.97ZM3986.33 1019.68 3986.33 1021.68 3986.69 1021.68 3986.69 1019.68ZM3723.41 994 3814.52 994 3986.33 994 3987 994 3987 1101.15 3723.41 1101.15C3707.39 1101.15 3692.53 1103.61 3678.81 1108.53 3665.09 1113.45 3653.17 1120.45 3643.08 1129.47 3632.97 1138.5 3625.07 1149.08 3619.35 1161.18 3613.65 1173.3 3610.78 1186.73 3610.78 1201.51 3610.78 1216.29 3613.53 1229.74 3619.07 1241.85 3624.59 1253.96 3632.41 1264.33 3642.51 1272.95 3652.6 1281.57 3664.52 1288.24 3678.24 1292.95 3691.96 1297.69 3707.02 1300.04 3723.41 1300.04L3868.07 1300.04 3868.07 1240.32 3670.24 1240.32 3684.62 1221.7 3781.84 1221.7 3783.03 1224.56C3784.3 1225.84 3786.07 1226.63 3788.02 1226.63 3791.91 1226.63 3795.07 1223.46 3795.07 1219.57 3795.07 1215.67 3791.91 1212.51 3788.02 1212.51 3786.07 1212.51 3784.3 1213.3 3783.03 1214.57L3781.84 1217.43 3687.92 1217.43 3703.33 1197.49 3747.83 1197.49 3748.91 1200.08C3750.19 1201.36 3751.95 1202.15 3753.9 1202.15 3757.79 1202.15 3760.95 1198.99 3760.95 1195.09 3760.95 1191.19 3757.79 1188.03 3753.9 1188.03 3751.95 1188.03 3750.19 1188.82 3748.91 1190.1L3747.62 1193.22 3706.63 1193.22 3722.44 1172.75 3824.52 1172.75 3825.7 1175.61C3826.98 1176.89 3828.74 1177.68 3830.69 1177.68 3834.59 1177.68 3837.75 1174.52 3837.75 1170.62 3837.75 1166.72 3834.59 1163.56 3830.69 1163.56 3828.74 1163.56 3826.98 1164.35 3825.7 1165.63L3824.52 1168.48 3725.74 1168.48 3741.13 1148.56 3985.85 1148.56 3985.85 1406 3723.41 1406C3722.39 1406 3721.41 1405.89 3720.39 1405.88 3688.4 1405.56 3658.69 1400.33 3631.36 1389.98 3603.15 1379.32 3578.85 1364.64 3558.46 1345.95 3538.07 1327.28 3522.06 1305.1 3510.44 1279.44 3498.8 1253.78 3493 1225.97 3493 1196 3493 1166.04 3498.8 1138.64 3510.44 1113.79 3513.55 1107.14 3517.02 1100.8 3520.76 1094.65 3530.99 1077.83 3543.52 1062.82 3558.46 1049.74 3578.84 1031.87 3603.15 1018.12 3631.36 1008.47 3659.57 998.829 3690.25 994 3723.41 994Z" fill="#F36B1C" fill-rule="evenodd"/><path d="M2835.68 1303.5 2837.01 1303.5 2949.43 1303.5 2968.98 1303.5C2977.5 1303.5 2985.24 1303.6 2992.21 1303.94 3004.04 1325.6 3019.41 1344.71 3037.78 1361.07 3059.13 1379.96 3084.79 1395.17 3114 1406L2949.43 1406 2765.44 1406 2756.41 1406 2775.47 1381.36 2885.64 1381.36 2886.82 1384.22C2888.1 1385.5 2889.87 1386.29 2891.82 1386.29 2895.72 1386.29 2898.88 1383.13 2898.88 1379.23 2898.88 1375.33 2895.72 1372.17 2891.82 1372.17 2889.87 1372.17 2888.1 1372.96 2886.82 1374.24L2885.64 1377.09 2778.77 1377.09 2794.2 1357.14 2851.59 1357.14 2852.67 1359.74C2853.94 1361.02 2855.71 1361.81 2857.66 1361.81 2861.56 1361.81 2864.72 1358.65 2864.72 1354.75 2864.72 1350.85 2861.56 1347.69 2857.66 1347.69 2855.71 1347.69 2853.94 1348.48 2852.67 1349.76L2851.37 1352.88 2797.5 1352.88 2813.33 1332.41 2928.36 1332.41 2929.55 1335.26C2930.83 1336.54 2932.59 1337.33 2934.54 1337.33 2938.44 1337.33 2941.6 1334.17 2941.6 1330.27 2941.6 1326.37 2938.44 1323.21 2934.54 1323.21 2932.59 1323.21 2930.83 1324 2929.55 1325.28L2928.36 1328.14 2816.63 1328.14ZM2900.21 994 2989.5 1103.6 2983.72 1114.49C2972.19 1139.55 2966.43 1167.18 2966.43 1197.39 2966.43 1212.5 2967.87 1227.07 2970.75 1241.09 2975.32 1254.99 2977.44 1267.32 2984.47 1282.79 2976.69 1274.8 2965.84 1263.98 2961.35 1257.22L2899.84 1178.15 2719.21 1405.73 2580 1405.73 2896.94 995.908Z" fill="#00036C" fill-rule="evenodd"/></g></svg>