<svg width="46" height="47" viewBox="0 0 46 47" fill="none" xmlns="http://www.w3.org/2000/svg">
<circle cx="23" cy="23.5" r="22.5" stroke="#BDBDBD"/>
<path d="M18.5 22.5H15.6C15.0399 22.5 14.7599 22.5 14.546 22.609C14.3578 22.7049 14.2049 22.8578 14.109 23.046C14 23.2599 14 23.5399 14 24.1V32.5M27.5 22.5H30.4C30.9601 22.5 31.2401 22.5 31.454 22.609C31.6422 22.7049 31.7951 22.8578 31.891 23.046C32 23.2599 32 23.5399 32 24.1V32.5M27.5 32.5V17.7C27.5 16.5799 27.5 16.0198 27.282 15.592C27.0903 15.2157 26.7843 14.9097 26.408 14.718C25.9802 14.5 25.4201 14.5 24.3 14.5H21.7C20.5799 14.5 20.0198 14.5 19.592 14.718C19.2157 14.9097 18.9097 15.2157 18.718 15.592C18.5 16.0198 18.5 16.5799 18.5 17.7V32.5M33 32.5H13M22 18.5H24M22 22.5H24M22 26.5H24" stroke="#BDBDBD" stroke-width="2" stroke-linecap="round" stroke-linejoin="round"/>
</svg>
