<svg width="26" height="26" viewBox="0 0 26 26" fill="none" xmlns="http://www.w3.org/2000/svg">
<path d="M11.4106 2.25623C12.185 1.15687 13.815 1.15687 14.5894 2.25623C15.1304 3.02415 16.143 3.29548 16.9954 2.90093C18.2158 2.33607 19.6273 3.15103 19.7483 4.49032C19.8329 5.42584 20.5742 6.16714 21.5097 6.25166C22.849 6.37266 23.6639 7.78421 23.0991 9.00457C22.7045 9.85702 22.9758 10.8696 23.7438 11.4106C24.8431 12.185 24.8431 13.815 23.7438 14.5894C22.9758 15.1304 22.7045 16.143 23.0991 16.9954C23.6639 18.2158 22.849 19.6273 21.5097 19.7483C20.5742 19.8329 19.8329 20.5742 19.7483 21.5097C19.6273 22.849 18.2158 23.6639 16.9954 23.0991C16.143 22.7045 15.1304 22.9758 14.5894 23.7438C13.815 24.8431 12.185 24.8431 11.4106 23.7438C10.8696 22.9758 9.85702 22.7045 9.00457 23.0991C7.78421 23.6639 6.37266 22.849 6.25166 21.5097C6.16714 20.5742 5.42584 19.8329 4.49032 19.7483C3.15103 19.6273 2.33607 18.2158 2.90093 16.9954C3.29548 16.143 3.02415 15.1304 2.25623 14.5894C1.15687 13.815 1.15687 12.185 2.25623 11.4106C3.02415 10.8696 3.29548 9.85702 2.90093 9.00457C2.33607 7.78421 3.15103 6.37266 4.49032 6.25166C5.42584 6.16714 6.16714 5.42584 6.25166 4.49032C6.37266 3.15103 7.78421 2.33607 9.00457 2.90093C9.85702 3.29548 10.8696 3.02415 11.4106 2.25623Z" fill="#008000"/>
<path d="M8 14.7455L11.1339 17.3571L18.4464 9" stroke="white" stroke-width="2" stroke-linecap="round" stroke-linejoin="round"/>
</svg>
