<svg width="50" height="50" viewBox="0 0 50 50" fill="none" xmlns="http://www.w3.org/2000/svg">
<circle cx="25" cy="25" r="25" fill="#E6E6E6"/>
<path d="M20.5 24H17.6C17.0399 24 16.7599 24 16.546 24.109C16.3578 24.2049 16.2049 24.3578 16.109 24.546C16 24.7599 16 25.0399 16 25.6V34M29.5 24H32.4C32.9601 24 33.2401 24 33.454 24.109C33.6422 24.2049 33.7951 24.3578 33.891 24.546C34 24.7599 34 25.0399 34 25.6V34M29.5 34V19.2C29.5 18.0799 29.5 17.5198 29.282 17.092C29.0903 16.7157 28.7843 16.4097 28.408 16.218C27.9802 16 27.4201 16 26.3 16H23.7C22.5799 16 22.0198 16 21.592 16.218C21.2157 16.4097 20.9097 16.7157 20.718 17.092C20.5 17.5198 20.5 18.0799 20.5 19.2V34M35 34H15M24 20H26M24 24H26M24 28H26" stroke="#7A7A7A" stroke-width="2" stroke-linecap="round" stroke-linejoin="round"/>
</svg>
