<svg width="25" height="24" viewBox="0 0 25 24" fill="none" xmlns="http://www.w3.org/2000/svg">
<path d="M5.82073 5.29289C6.21125 4.90237 6.84441 4.90237 7.23494 5.29289L12.5278 10.5858L17.8207 5.29289C18.2112 4.90237 18.8444 4.90237 19.2349 5.29289C19.6255 5.68342 19.6255 6.31658 19.2349 6.70711L13.942 12L19.2349 17.2929C19.6255 17.6834 19.6255 18.3166 19.2349 18.7071C18.8444 19.0976 18.2112 19.0976 17.8207 18.7071L12.5278 13.4142L7.23494 18.7071C6.84441 19.0976 6.21125 19.0976 5.82073 18.7071C5.4302 18.3166 5.4302 17.6834 5.82073 17.2929L11.1136 12L5.82073 6.70711C5.4302 6.31658 5.4302 5.68342 5.82073 5.29289Z" fill="#828282"/>
</svg>
