<svg width="24" height="24" viewBox="0 0 24 24" fill="none" xmlns="http://www.w3.org/2000/svg">
<path fill-rule="evenodd" clip-rule="evenodd" d="M7.0013 7.99805V18.0021C7.0013 19.1071 7.8971 20.0029 9.00212 20.0029H15.0046C16.1096 20.0029 17.0054 19.1071 17.0054 18.0021V7.99805H19.0062V18.0021C19.0062 20.2122 17.2146 22.0037 15.0046 22.0037H9.00212C6.79208 22.0037 5.00049 20.2122 5.00049 18.0021V7.99805H7.0013Z" fill="#FF4444"/>
<path fill-rule="evenodd" clip-rule="evenodd" d="M9.28618 11.2911C9.67686 10.9004 10.3103 10.9004 10.701 11.2911L11.9944 12.5845L13.2878 11.2911C13.6785 10.9004 14.3119 10.9004 14.7026 11.2911C15.0933 11.6817 15.0933 12.3152 14.7026 12.7058L13.4092 13.9993L14.7026 15.2927C15.0933 15.6834 15.0933 16.3168 14.7026 16.7075C14.3119 17.0982 13.6785 17.0982 13.2878 16.7075L11.9944 15.4141L10.701 16.7075C10.3103 17.0982 9.67686 17.0982 9.28618 16.7075C8.89549 16.3168 8.89549 15.6834 9.28618 15.2927L10.5796 13.9993L9.28618 12.7058C8.89549 12.3152 8.89549 11.6817 9.28618 11.2911Z" fill="#FF4444"/>
<path fill-rule="evenodd" clip-rule="evenodd" d="M7.99821 5.99675V4.99634C7.99821 3.33881 9.3419 1.99512 10.9994 1.99512H13.0002C14.6578 1.99512 16.0015 3.33881 16.0015 4.99634V5.99675H19.0027C19.5552 5.99675 20.0031 6.44464 20.0031 6.99715C20.0031 7.54966 19.5552 7.99756 19.0027 7.99756H4.99699C4.44448 7.99756 3.99658 7.54966 3.99658 6.99715C3.99658 6.44464 4.44448 5.99675 4.99699 5.99675H7.99821ZM9.99902 4.99634C9.99902 4.44383 10.4469 3.99593 10.9994 3.99593H13.0002C13.5528 3.99593 14.0006 4.44383 14.0006 4.99634V5.99675H9.99902V4.99634Z" fill="#FF4444"/>
</svg>
