<svg width="20" height="20" viewBox="0 0 20 20" fill="none" xmlns="http://www.w3.org/2000/svg">
<path d="M10.0007 1.66797C10.4609 1.66797 10.834 2.04106 10.834 2.5013V11.3228L12.7447 9.41205C13.0702 9.08661 13.5978 9.08661 13.9232 9.41205C14.2487 9.73748 14.2487 10.2651 13.9232 10.5906L10.5899 13.9239C10.2645 14.2493 9.73683 14.2493 9.4114 13.9239L6.07806 10.5906C5.75262 10.2651 5.75262 9.73748 6.07806 9.41205C6.4035 9.08661 6.93114 9.08661 7.25657 9.41205L9.16732 11.3228V2.5013C9.16732 2.04106 9.54041 1.66797 10.0007 1.66797ZM4.16732 14.168C4.62756 14.168 5.00065 14.5411 5.00065 15.0013V16.668H15.0007V15.0013C15.0007 14.5411 15.3737 14.168 15.834 14.168C16.2942 14.168 16.6673 14.5411 16.6673 15.0013V16.668C16.6673 17.5884 15.9211 18.3346 15.0007 18.3346H5.00065C4.08018 18.3346 3.33398 17.5884 3.33398 16.668V15.0013C3.33398 14.5411 3.70708 14.168 4.16732 14.168Z" fill="#828282"/>
</svg>
