<svg width="23" height="21" viewBox="0 0 23 21" fill="none" xmlns="http://www.w3.org/2000/svg">
<path d="M10.2429 3.59232C10.6494 3.53223 11.0686 3.5 11.5004 3.5C16.6054 3.5 19.9553 8.00484 21.0807 9.78682C21.2169 10.0025 21.285 10.1103 21.3231 10.2767C21.3518 10.4016 21.3517 10.5987 21.3231 10.7236C21.2849 10.8899 21.2164 10.9985 21.0792 11.2156C20.7793 11.6901 20.3222 12.3571 19.7165 13.0805M6.22432 5.21504C4.06225 6.6817 2.59445 8.71938 1.92111 9.78528C1.78428 10.0019 1.71587 10.1102 1.67774 10.2765C1.6491 10.4014 1.64909 10.5984 1.67771 10.7234C1.71583 10.8897 1.78393 10.9975 1.92013 11.2132C3.04554 12.9952 6.39541 17.5 11.5004 17.5C13.5588 17.5 15.3319 16.7676 16.7888 15.7766M2.50042 1.5L20.5004 19.5M9.3791 8.37868C8.8362 8.92157 8.50042 9.67157 8.50042 10.5C8.50042 12.1569 9.84356 13.5 11.5004 13.5C12.3288 13.5 13.0788 13.1642 13.6217 12.6213" stroke="#828282" stroke-width="2" stroke-linecap="round" stroke-linejoin="round"/>
</svg>
