<svg width="22" height="21" viewBox="0 0 22 21" fill="none" xmlns="http://www.w3.org/2000/svg">
<path d="M6.5 9.5H3.6C3.03995 9.5 2.75992 9.5 2.54601 9.60899C2.35785 9.70487 2.20487 9.85785 2.10899 10.046C2 10.2599 2 10.5399 2 11.1V19.5M15.5 9.5H18.4C18.9601 9.5 19.2401 9.5 19.454 9.60899C19.6422 9.70487 19.7951 9.85785 19.891 10.046C20 10.2599 20 10.5399 20 11.1V19.5M15.5 19.5V4.7C15.5 3.5799 15.5 3.01984 15.282 2.59202C15.0903 2.21569 14.7843 1.90973 14.408 1.71799C13.9802 1.5 13.4201 1.5 12.3 1.5H9.7C8.57989 1.5 8.01984 1.5 7.59202 1.71799C7.21569 1.90973 6.90973 2.21569 6.71799 2.59202C6.5 3.01984 6.5 3.5799 6.5 4.7V19.5M21 19.5H1M10 5.5H12M10 9.5H12M10 13.5H12" stroke="#828282" stroke-width="2" stroke-linecap="round" stroke-linejoin="round"/>
</svg>
