<svg width="12" height="16" viewBox="0 0 12 16" fill="none" xmlns="http://www.w3.org/2000/svg">
<path fill-rule="evenodd" clip-rule="evenodd" d="M2.45671 5.16553V12.2513C2.45671 13.034 3.09119 13.6685 3.87386 13.6685H8.12533C8.908 13.6685 9.54249 13.034 9.54249 12.2513V5.16553H10.9596V12.2513C10.9596 13.8167 9.69068 15.0856 8.12533 15.0856H3.87386C2.30852 15.0856 1.03955 13.8167 1.03955 12.2513V5.16553H2.45671Z" fill="#FF4444"/>
<path fill-rule="evenodd" clip-rule="evenodd" d="M4.08156 7.49904C4.35828 7.22232 4.80692 7.22232 5.08364 7.49904L5.99976 8.41516L6.91587 7.49904C7.19259 7.22232 7.64124 7.22232 7.91795 7.49904C8.19467 7.77576 8.19467 8.22441 7.91795 8.50112L7.00184 9.41724L7.91795 10.3334C8.19467 10.6101 8.19467 11.0587 7.91795 11.3354C7.64124 11.6121 7.19259 11.6121 6.91587 11.3354L5.99976 10.4193L5.08364 11.3354C4.80692 11.6121 4.35828 11.6121 4.08156 11.3354C3.80484 11.0587 3.80484 10.6101 4.08156 10.3334L4.99768 9.41724L4.08156 8.50112C3.80484 8.22441 3.80484 7.77576 4.08156 7.49904Z" fill="#FF4444"/>
<path fill-rule="evenodd" clip-rule="evenodd" d="M3.16585 3.74837V3.0398C3.16585 1.86579 4.11758 0.914062 5.29159 0.914062H6.70874C7.88275 0.914062 8.83447 1.86579 8.83447 3.0398V3.74837H10.9602C11.3515 3.74837 11.6688 4.06561 11.6688 4.45695C11.6688 4.84829 11.3515 5.16553 10.9602 5.16553H1.04012C0.648784 5.16553 0.331543 4.84829 0.331543 4.45695C0.331543 4.06561 0.648784 3.74837 1.04012 3.74837H3.16585ZM4.58301 3.0398C4.58301 2.64846 4.90025 2.33122 5.29159 2.33122H6.70874C7.10008 2.33122 7.41732 2.64846 7.41732 3.0398V3.74837H4.58301V3.0398Z" fill="#FF4444"/>
</svg>
