<svg width="20" height="19" viewBox="0 0 20 19" fill="none" xmlns="http://www.w3.org/2000/svg">
<path d="M13.6249 0.292893C14.0154 -0.0976311 14.6486 -0.0976311 15.0391 0.292893L19.0391 4.29289C19.4297 4.68342 19.4297 5.31658 19.0391 5.70711L6.03914 18.7071C5.8516 18.8946 5.59725 19 5.33203 19H1.33203C0.779746 19 0.332031 18.5523 0.332031 18V14C0.332031 13.7348 0.437388 13.4804 0.624924 13.2929L10.6247 3.2931L13.6249 0.292893ZM11.332 5.41421L2.33203 14.4142V17H4.91782L13.9178 8L11.332 5.41421ZM15.332 6.58579L16.9178 5L14.332 2.41421L12.7462 4L15.332 6.58579Z" fill="#A1A1A1"/>
</svg>
