<svg width="20" height="20" viewBox="0 0 20 20" fill="none" xmlns="http://www.w3.org/2000/svg">
<path d="M9.9987 1.66699C6.33203 1.66699 3.33203 4.66699 3.33203 8.33366C3.33203 12.8337 9.16536 17.917 9.41536 18.167C9.58203 18.2503 9.83203 18.3337 9.9987 18.3337C10.1654 18.3337 10.4154 18.2503 10.582 18.167C10.832 17.917 16.6654 12.8337 16.6654 8.33366C16.6654 4.66699 13.6654 1.66699 9.9987 1.66699ZM9.9987 16.417C8.2487 14.7503 4.9987 11.167 4.9987 8.33366C4.9987 5.58366 7.2487 3.33366 9.9987 3.33366C12.7487 3.33366 14.9987 5.58366 14.9987 8.33366C14.9987 11.0837 11.7487 14.7503 9.9987 16.417ZM9.9987 5.00033C8.16536 5.00033 6.66536 6.50033 6.66536 8.33366C6.66536 10.167 8.16536 11.667 9.9987 11.667C11.832 11.667 13.332 10.167 13.332 8.33366C13.332 6.50033 11.832 5.00033 9.9987 5.00033ZM9.9987 10.0003C9.08203 10.0003 8.33203 9.25033 8.33203 8.33366C8.33203 7.41699 9.08203 6.66699 9.9987 6.66699C10.9154 6.66699 11.6654 7.41699 11.6654 8.33366C11.6654 9.25033 10.9154 10.0003 9.9987 10.0003Z" fill="#A1A1A1"/>
</svg>
