<svg width="20" height="18" viewBox="0 0 20 18" fill="none" xmlns="http://www.w3.org/2000/svg">
<path d="M10.9173 8.08333H15.3173C16.3441 8.08333 16.8575 8.08333 17.2496 8.28315C17.5946 8.45892 17.8751 8.73939 18.0508 9.08435C18.2507 9.47652 18.2507 9.9899 18.2507 11.0167V17.25M10.9173 17.25V3.68333C10.9173 2.65657 10.9173 2.14319 10.7175 1.75102C10.5417 1.40605 10.2613 1.12559 9.9163 0.949821C9.52413 0.75 9.01075 0.75 7.98398 0.75H4.68398C3.65722 0.75 3.14384 0.75 2.75167 0.949821C2.4067 1.12559 2.12624 1.40605 1.95047 1.75102C1.75065 2.14319 1.75065 2.65657 1.75065 3.68333V17.25M19.1673 17.25H0.833984M4.95898 4.41667H7.70898M4.95898 8.08333H7.70898M4.95898 11.75H7.70898" stroke="white" stroke-width="1.5" stroke-linecap="round" stroke-linejoin="round"/>
</svg>
