<svg width="24" height="24" viewBox="0 0 24 24" fill="none" xmlns="http://www.w3.org/2000/svg">
<path d="M5.14272 10.7143C5.14272 10.1459 5.36848 9.6009 5.77035 9.19904C6.17221 8.79718 6.71725 8.57141 7.28557 8.57141C7.8539 8.57141 8.39894 8.79718 8.8008 9.19904C9.20267 9.6009 9.42843 10.1459 9.42843 10.7143C9.42843 11.2826 9.20267 11.8276 8.8008 12.2295C8.39894 12.6314 7.8539 12.8571 7.28557 12.8571C6.71725 12.8571 6.17221 12.6314 5.77035 12.2295C5.36848 11.8276 5.14272 11.2826 5.14272 10.7143ZM7.28557 9.85713C7.05825 9.85713 6.84023 9.94743 6.67948 10.1082C6.51874 10.2689 6.42843 10.4869 6.42843 10.7143C6.42843 10.9416 6.51874 11.1596 6.67948 11.3204C6.84023 11.4811 7.05825 11.5714 7.28557 11.5714C7.5129 11.5714 7.73092 11.4811 7.89167 11.3204C8.05241 11.1596 8.14272 10.9416 8.14272 10.7143C8.14272 10.4869 8.05241 10.2689 7.89167 10.1082C7.73092 9.94743 7.5129 9.85713 7.28557 9.85713ZM7.28557 14.5714C6.71725 14.5714 6.17221 14.7972 5.77035 15.199C5.36848 15.6009 5.14272 16.1459 5.14272 16.7143C5.14272 17.2826 5.36848 17.8276 5.77035 18.2295C6.17221 18.6314 6.71725 18.8571 7.28557 18.8571C7.8539 18.8571 8.39894 18.6314 8.8008 18.2295C9.20267 17.8276 9.42843 17.2826 9.42843 16.7143C9.42843 16.1459 9.20267 15.6009 8.8008 15.199C8.39894 14.7972 7.8539 14.5714 7.28557 14.5714ZM6.42843 16.7143C6.42843 16.4869 6.51874 16.2689 6.67948 16.1082C6.84023 15.9474 7.05825 15.8571 7.28557 15.8571C7.5129 15.8571 7.73092 15.9474 7.89167 16.1082C8.05241 16.2689 8.14272 16.4869 8.14272 16.7143C8.14272 16.9416 8.05241 17.1596 7.89167 17.3204C7.73092 17.4811 7.5129 17.5714 7.28557 17.5714C7.05825 17.5714 6.84023 17.4811 6.67948 17.3204C6.51874 17.1596 6.42843 16.9416 6.42843 16.7143ZM11.1427 10.5C11.1427 10.3295 11.2104 10.166 11.331 10.0454C11.4516 9.92486 11.6151 9.85713 11.7856 9.85713H18.2141C18.3846 9.85713 18.5482 9.92486 18.6687 10.0454C18.7893 10.166 18.857 10.3295 18.857 10.5C18.857 10.6705 18.7893 10.834 18.6687 10.9546C18.5482 11.0751 18.3846 11.1428 18.2141 11.1428H11.7856C11.6151 11.1428 11.4516 11.0751 11.331 10.9546C11.2104 10.834 11.1427 10.6705 11.1427 10.5ZM11.7856 15.8571C11.6151 15.8571 11.4516 15.9249 11.331 16.0454C11.2104 16.166 11.1427 16.3295 11.1427 16.5C11.1427 16.6705 11.2104 16.834 11.331 16.9546C11.4516 17.0751 11.6151 17.1428 11.7856 17.1428H18.2141C18.3846 17.1428 18.5482 17.0751 18.6687 16.9546C18.7893 16.834 18.857 16.6705 18.857 16.5C18.857 16.3295 18.7893 16.166 18.6687 16.0454C18.5482 15.9249 18.3846 15.8571 18.2141 15.8571H11.7856ZM5.14272 6.21427C5.14272 6.04377 5.21045 5.88026 5.33101 5.7597C5.45157 5.63914 5.61508 5.57141 5.78557 5.57141H18.2141C18.3846 5.57141 18.5482 5.63914 18.6687 5.7597C18.7893 5.88026 18.857 6.04377 18.857 6.21427C18.857 6.38476 18.7893 6.54828 18.6687 6.66884C18.5482 6.7894 18.3846 6.85713 18.2141 6.85713H5.78557C5.61508 6.85713 5.45157 6.7894 5.33101 6.66884C5.21045 6.54828 5.14272 6.38476 5.14272 6.21427ZM5.78557 2.57141C4.93309 2.57141 4.11553 2.91006 3.51273 3.51285C2.90994 4.11565 2.57129 4.93322 2.57129 5.7857V18.2143C2.57129 19.0667 2.90994 19.8843 3.51273 20.4871C4.11553 21.0899 4.93309 21.4286 5.78557 21.4286H18.2141C19.0666 21.4286 19.8842 21.0899 20.487 20.4871C21.0898 19.8843 21.4284 19.0667 21.4284 18.2143V5.7857C21.4284 4.93322 21.0898 4.11565 20.487 3.51285C19.8842 2.91006 19.0666 2.57141 18.2141 2.57141H5.78557ZM3.857 5.7857C3.857 5.27421 4.06019 4.78367 4.42187 4.42199C4.78355 4.06031 5.27409 3.85713 5.78557 3.85713H18.2141C18.7256 3.85713 19.2162 4.06031 19.5779 4.42199C19.9395 4.78367 20.1427 5.27421 20.1427 5.7857V18.2143C20.1427 18.7258 19.9395 19.2163 19.5779 19.578C19.2162 19.9397 18.7256 20.1428 18.2141 20.1428H5.78557C5.27409 20.1428 4.78355 19.9397 4.42187 19.578C4.06019 19.2163 3.857 18.7258 3.857 18.2143V5.7857Z" fill="white"/>
</svg>
