<svg width="22" height="22" viewBox="0 0 22 22" fill="none" xmlns="http://www.w3.org/2000/svg">
<path d="M9.44698 17.4604C9.30844 17.5314 9.20361 17.5352 6.30195 17.5352C3.04461 17.5352 3.04835 17.5352 2.69266 17.3258C2.45304 17.1874 2.1947 16.9033 2.06366 16.6378L1.94385 16.3948V10.2441V4.0935L2.05243 3.88785C2.26958 3.47283 2.61404 3.16249 2.99219 3.04284C3.10826 3.00545 3.68859 2.99424 5.5756 3.00171L8.00925 3.00919L8.22266 3.11014C8.57086 3.27092 8.77304 3.49526 9.23356 4.23184C9.4657 4.59826 9.69783 4.93103 9.75025 4.96468C9.83636 5.02451 10.1583 5.02824 13.8687 5.04694L17.8936 5.06563L18.1744 5.20024C18.4927 5.35354 18.7435 5.57788 18.8933 5.8583C19.0692 6.17611 19.1104 6.42289 19.1104 7.09964" stroke="white" stroke-width="1.75" stroke-linecap="round" stroke-linejoin="round"/>
<path d="M16.0776 10.3145C15.0255 10.4379 14.3815 10.595 13.8349 10.8604C13.4268 11.0586 13.0224 11.4437 12.9213 11.7316C12.7678 12.1728 12.8839 12.6103 13.247 12.9655C14.3515 14.0498 17.8298 14.2704 19.6532 13.3768C20.3196 13.0477 20.6453 12.6327 20.6453 12.113C20.6453 11.9709 20.6191 11.7989 20.5892 11.7241C20.2372 10.8791 18.8557 10.3482 16.92 10.3108C16.5306 10.3033 16.1487 10.3071 16.0776 10.3145ZM17.5565 11.3764C18.5636 11.4699 19.627 11.87 19.5895 12.1354C19.5745 12.2401 19.3387 12.3971 18.9942 12.5318C17.5752 13.0814 15.1341 12.9767 14.1044 12.3261C13.8386 12.1579 13.8349 12.0569 14.0782 11.8999C14.4377 11.6755 15.2239 11.4474 15.8716 11.3839C16.3509 11.3353 17.0772 11.3315 17.5565 11.3764Z" fill="white"/>
<path d="M13.2173 14.2161C12.9702 14.2909 12.8429 14.5078 12.8653 14.8106C12.9215 15.6071 13.8875 16.2053 15.5049 16.4483C16.104 16.5381 17.3807 16.5381 18.0022 16.4483C19.6309 16.2165 20.6455 15.5659 20.6455 14.7508C20.6455 14.5452 20.6343 14.504 20.5295 14.3844C20.2374 14.0554 19.7544 14.1825 19.6346 14.6237C19.5523 14.934 19.0955 15.1659 18.1632 15.3678C17.7364 15.4612 17.6465 15.465 16.7517 15.465C15.8494 15.465 15.7707 15.4575 15.3327 15.3603C14.6363 15.207 14.1383 15.0088 13.9698 14.8219C13.9399 14.7882 13.895 14.6873 13.8725 14.6013C13.8313 14.4517 13.6216 14.2161 13.5205 14.2161C13.4943 14.2161 13.4419 14.2087 13.4007 14.1975C13.3596 14.19 13.2772 14.1975 13.2173 14.2161Z" fill="white"/>
<path d="M13.1762 16.831C13.0638 16.8796 12.8954 17.0591 12.8692 17.1601C12.8355 17.3096 12.8841 17.6349 12.9702 17.8032C13.3821 18.6108 14.8311 19.1193 16.733 19.123C18.6163 19.1268 20.054 18.6444 20.5183 17.8555C20.6568 17.6162 20.6868 17.2087 20.5782 17.0367C20.4809 16.8834 20.2637 16.7824 20.0802 16.8086C19.8219 16.8422 19.6834 16.9881 19.6197 17.2947C19.5448 17.62 18.5077 17.9752 17.3209 18.0761C16.2014 18.1696 14.8423 17.9527 14.1833 17.5788C13.9587 17.4517 13.91 17.3956 13.8838 17.2498C13.8202 16.9133 13.4757 16.7114 13.1762 16.831Z" fill="white"/>
</svg>
