<svg width="22" height="22" viewBox="0 0 22 22" fill="none" xmlns="http://www.w3.org/2000/svg">
<path d="M11.0364 17.94L4.77304 17.9343V6.87857H17.1714L17.2265 10.3125C17.232 10.6537 17.5105 10.927 17.851 10.927H17.8611C18.2062 10.9213 18.4813 10.6375 18.4758 10.2922L18.4096 6.14898C18.4081 6.06413 18.3891 5.98333 18.3567 5.9099C18.3337 5.84493 18.3023 5.78216 18.2605 5.72437L16.3686 3.11118C16.2324 2.9216 16.0117 2.80859 15.7785 2.80859H6.16154C5.92945 2.80859 5.7095 2.92087 5.57201 3.10989L3.68013 5.72437C3.60209 5.83204 3.55828 5.95573 3.54614 6.08235C3.53288 6.13297 3.52368 6.18506 3.52368 6.23972V17.9345C3.52368 18.6267 4.0867 19.1895 4.77893 19.1895H11.0364C11.3815 19.1895 11.6611 18.9098 11.6611 18.5649C11.6611 18.2198 11.3815 17.94 11.0364 17.94ZM6.42823 4.05777H15.5118L16.6491 5.62921H5.29115L6.42823 4.05777Z" fill="#666666"/>
<path d="M11.0364 17.94L4.77304 17.9343V6.87857H17.1714L17.2265 10.3125C17.232 10.6537 17.5105 10.927 17.851 10.927H17.8611C18.2062 10.9213 18.4813 10.6375 18.4758 10.2922L18.4096 6.14898C18.4081 6.06413 18.3891 5.98333 18.3567 5.9099C18.3337 5.84493 18.3023 5.78216 18.2605 5.72437L16.3686 3.11118C16.2324 2.9216 16.0117 2.80859 15.7785 2.80859H6.16154C5.92945 2.80859 5.7095 2.92087 5.57201 3.10989L3.68013 5.72437C3.60209 5.83204 3.55828 5.95573 3.54614 6.08235C3.53288 6.13297 3.52368 6.18506 3.52368 6.23972V17.9345C3.52368 18.6267 4.0867 19.1895 4.77893 19.1895H11.0364C11.3815 19.1895 11.6611 18.9098 11.6611 18.5649C11.6611 18.2198 11.3815 17.94 11.0364 17.94ZM6.42823 4.05777H15.5118L16.6491 5.62921H5.29115L6.42823 4.05777Z" fill="white"/>
<path d="M8.57512 9.14648C8.2302 9.14648 7.95044 9.42606 7.95044 9.77116C7.95044 10.1161 8.23002 10.3958 8.57512 10.3958H13.5009C13.8459 10.3958 14.1256 10.1163 14.1256 9.77116C14.1256 9.42625 13.846 9.14648 13.5009 9.14648H8.57512Z" fill="white"/>
<path d="M11.8037 15.916H16.4947" stroke="white" stroke-width="1.25" stroke-linecap="round" stroke-linejoin="round"/>
<path d="M15.845 13.875L17.8405 15.9159L15.845 17.9577" stroke="white" stroke-width="1.25" stroke-linecap="round" stroke-linejoin="round"/>
</svg>
