<svg width="18" height="19" viewBox="0 0 18 19" fill="none" xmlns="http://www.w3.org/2000/svg">
<path fill-rule="evenodd" clip-rule="evenodd" d="M10.7615 2.29767H1.51373V11.5454H4.65081C4.59619 11.9836 4.58248 12.4258 4.60986 12.8665H1.51373C0.784152 12.8665 0.192627 12.275 0.192627 11.5454V2.29767C0.192627 1.56809 0.784152 0.976562 1.51373 0.976562H10.7615C11.4911 0.976562 12.0826 1.56809 12.0826 2.29767V5.39379C11.6419 5.36664 11.1996 5.38035 10.7615 5.43475V2.29767ZM16.4374 12.4261C16.4374 15.0744 14.2905 17.2213 11.6422 17.2213C8.99395 17.2213 6.84704 15.0744 6.84704 12.4261C6.84704 9.77788 8.99384 7.63097 11.6422 7.63097C14.2905 7.63097 16.4374 9.77777 16.4374 12.4261ZM17.8074 12.4261C17.8074 15.8311 15.0471 18.5913 11.6422 18.5913C8.23728 18.5913 5.47705 15.8311 5.47705 12.4261C5.47705 9.02122 8.23728 6.26099 11.6422 6.26099C15.0471 6.26099 17.8074 9.02122 17.8074 12.4261Z" fill="white"/>
<path d="M8.51978 12.2305H12.9999" stroke="white" stroke-width="1.25" stroke-linecap="round" stroke-linejoin="round"/>
<path d="M12.3794 10.2812L14.2853 12.2305L12.3794 14.1804" stroke="white" stroke-width="1.25" stroke-linecap="round" stroke-linejoin="round"/>
</svg>
