<svg width="22" height="22" viewBox="0 0 22 22" fill="none" xmlns="http://www.w3.org/2000/svg">
<path fill-rule="evenodd" clip-rule="evenodd" d="M14.1404 3.87231H4.6709V16.3418H7.88319C7.82727 16.7904 7.81323 17.2433 7.84126 17.6946H4.6709C3.92382 17.6946 3.31812 17.0889 3.31812 16.3418V3.87231C3.31812 3.12524 3.92382 2.51953 4.6709 2.51953H14.1404C14.8875 2.51953 15.4932 3.12524 15.4932 3.87231V7.04267C15.0419 7.01488 14.589 7.02891 14.1404 7.08461V3.87231ZM19.9524 14.2437C19.9524 16.9554 17.754 19.1538 15.0422 19.1538C12.3305 19.1538 10.1321 16.9554 10.1321 14.2437C10.1321 11.5319 12.3304 9.3335 15.0422 9.3335C17.754 9.3335 19.9524 11.5318 19.9524 14.2437ZM21.3552 14.2437C21.3552 17.7302 18.5288 20.5566 15.0422 20.5566C11.5557 20.5566 8.72925 17.7302 8.72925 14.2437C8.72925 10.7571 11.5557 7.93066 15.0422 7.93066C18.5288 7.93066 21.3552 10.7571 21.3552 14.2437Z" fill="white"/>
<path d="M17.1384 15.6152L14.4503 14.8625L14.4503 12.2361" stroke="white" stroke-width="1.52051" stroke-linecap="round" stroke-linejoin="round"/>
<path d="M7.13647 5.9668H11.8154" stroke="white" stroke-width="1.21641" stroke-linecap="round" stroke-linejoin="round"/>
<path d="M0.967041 8.26953L1.80584 8.26953" stroke="white" stroke-width="1.21641" stroke-linecap="round" stroke-linejoin="round"/>
<path d="M0.826416 11.916L3.31806 11.916" stroke="white" stroke-width="1.21641" stroke-linecap="round" stroke-linejoin="round"/>
</svg>
