<svg width="22" height="22" viewBox="0 0 22 22" fill="none" xmlns="http://www.w3.org/2000/svg">
<path d="M16.4389 12.2695L12.6733 14.3605V18.5447L16.4389 20.6356L20.2044 18.5447V14.3605L16.4389 12.2695ZM18.5298 17.561L16.4389 18.7231L14.3479 17.561V15.3465L16.4389 14.1843L18.5298 15.3465V17.561Z" fill="white"/>
<path d="M15.6121 16.5866C15.6297 16.6951 15.6685 16.7991 15.7263 16.8927C15.7841 16.9862 15.8598 17.0674 15.949 17.1317C16.0382 17.196 16.1392 17.2421 16.2462 17.2674C16.3532 17.2927 16.4641 17.2966 16.5727 17.279C16.6812 17.2614 16.7852 17.2226 16.8788 17.1648C16.9723 17.107 17.0535 17.0314 17.1178 16.9422C17.1821 16.853 17.2282 16.752 17.2535 16.645C17.2788 16.538 17.2827 16.427 17.2651 16.3185C17.2475 16.2099 17.2087 16.1059 17.1509 16.0124C17.0931 15.9189 17.0174 15.8376 16.9282 15.7733C16.839 15.709 16.7381 15.6629 16.6311 15.6376C16.524 15.6124 16.4131 15.6084 16.3046 15.626C16.196 15.6436 16.092 15.6825 15.9985 15.7402C15.9049 15.798 15.8237 15.8737 15.7594 15.9629C15.6951 16.0521 15.649 16.1531 15.6237 16.2601C15.5985 16.3671 15.5945 16.4781 15.6121 16.5866Z" fill="white"/>
<path d="M15.0426 10.6924C14.7521 10.5506 14.4547 10.4225 14.1527 10.3126C15.292 9.3907 16.0195 7.98377 16.0195 6.40983C16.0195 3.64172 13.7684 1.39062 11.0003 1.39062C8.23216 1.39062 5.98107 3.64172 5.98107 6.40983C5.98107 7.98606 6.71085 9.39528 7.85012 10.3149C4.32249 11.6052 1.79688 14.9933 1.79688 18.9624H3.46918C3.46918 14.8103 6.84811 11.4336 10.998 11.4336C12.1579 11.4336 13.2697 11.6898 14.3037 12.1954L15.0426 10.6924ZM11.0003 3.06293C12.8464 3.06293 14.3472 4.56366 14.3472 6.40983C14.3472 8.256 12.8464 9.75673 11.0003 9.75673C9.15411 9.75673 7.65338 8.256 7.65338 6.40983C7.65338 4.56366 9.15639 3.06293 11.0003 3.06293Z" fill="white"/>
</svg>
