<svg width="22" height="22" viewBox="0 0 22 22" fill="none" xmlns="http://www.w3.org/2000/svg">
<path d="M20.5775 7.85191L17.9982 3.39816C17.797 3.05113 17.4476 2.84375 17.0636 2.84375H4.93056C4.54482 2.84375 4.18049 3.0611 3.97956 3.41135L1.43367 7.85308C1.38026 7.94608 1.38056 8.06019 1.43424 8.15289C1.48792 8.24558 1.58707 8.30278 1.69416 8.30278H3.0133V17.7559C3.0133 18.0419 3.13502 18.3206 3.34741 18.5212C3.55801 18.7198 3.8367 18.8292 4.13237 18.8292H7.36204H14.6497H17.8674C18.1657 18.8292 18.4476 18.7187 18.6612 18.5174C18.8756 18.3147 18.9985 18.0331 18.9985 17.7445V8.30278H20.3177C20.425 8.30278 20.5241 8.24558 20.5778 8.15229C20.6315 8.05929 20.6315 7.94491 20.5775 7.85191ZM6.43048 7.70202L7.60928 3.44451H10.7055V7.70202H6.43048ZM11.3063 3.44451H14.4021L15.5813 7.70202H11.3063V3.44451ZM4.50051 3.71025C4.59615 3.54393 4.75688 3.44451 4.93056 3.44451H6.98588L5.8071 7.70202H3.31368H2.21246L4.50051 3.71025ZM7.66242 18.2285V12.3514H14.3494V18.2285H7.66242ZM18.3978 17.7445C18.3978 17.8706 18.3446 17.99 18.249 18.0806C18.1493 18.1745 18.0099 18.2285 17.8674 18.2285H14.9501V12.0511C14.9501 11.885 14.8158 11.7507 14.6497 11.7507H7.36204C7.19602 11.7507 7.06166 11.885 7.06166 12.0511V18.2285H4.13237C3.99275 18.2285 3.85665 18.176 3.75953 18.0844C3.66567 17.9956 3.61406 17.8791 3.61406 17.7559V8.30278H18.3978V17.7445ZM18.6981 7.70202H16.2048L15.0253 3.44451H17.0636C17.2308 3.44451 17.3857 3.53982 17.4784 3.69941L19.7967 7.70202H18.6981Z" stroke="white" stroke-linecap="round" stroke-linejoin="round"/>
</svg>
